<?xml version="1.0" standalone="no"?>
<!DOCTYPE svg PUBLIC "-//W3C//DTD SVG 20010904//EN"
 "http://www.w3.org/TR/2001/REC-SVG-20010904/DTD/svg10.dtd">
<svg version="1.0" xmlns="http://www.w3.org/2000/svg"
 width="451.000000pt" height="451.000000pt" viewBox="0 0 451.000000 451.000000"
 preserveAspectRatio="xMidYMid meet">
<metadata>
Created by potrace 1.14, written by Peter Selinger 2001-2017
</metadata>
<g transform="translate(0.000000,451.000000) scale(0.100000,-0.100000)"
fill="#000000" stroke="none">
<path d="M2070 4504 c-885 -81 -1631 -650 -1934 -1475 -43 -118 -89 -298 -113
-444 -24 -153 -24 -497 0 -650 81 -496 297 -924 638 -1266 341 -340 777 -559
1269 -636 159 -24 481 -24 640 0 492 77 928 296 1270 637 341 342 560 778 637
1270 24 159 24 481 0 640 -155 989 -888 1734 -1872 1901 -117 19 -426 33 -535
23z m-630 -1188 c19 -10 232 -214 472 -455 484 -483 482 -480 482 -601 0 -121
3 -117 -487 -606 -397 -396 -447 -443 -491 -458 -179 -59 -346 57 -346 239 0
107 9 118 378 488 l337 337 -337 338 c-369 369 -378 380 -378 487 0 105 51
186 145 232 42 20 61 23 120 20 40 -2 85 -11 105 -21z m1035 -4 c58 -30 920
-896 940 -944 22 -55 20 -171 -5 -222 -29 -60 -902 -930 -955 -952 -133 -55
-299 23 -340 160 -19 64 -19 101 1 162 15 43 56 88 363 397 l346 347 -337 338
c-369 369 -377 380 -378 488 0 106 66 202 165 239 53 20 149 14 200 -13z"/>
</g>
</svg>
